<?xml version="1.0" encoding="utf-8"?>
<!-- Generator: Adobe Illustrator 21.1.0, SVG Export Plug-In . SVG Version: 6.00 Build 0)  -->
<svg version="1.1" id="Layer_1" xmlns="http://www.w3.org/2000/svg" xmlns:xlink="http://www.w3.org/1999/xlink" x="0px" y="0px"
	 viewBox="0 0 24 24" style="enable-background:new 0 0 24 24;" xml:space="preserve">
<style type="text/css">
	.st0{fill:#FFFFFF;}
</style>
<path class="st0" d="M18.7,5.8v1.7c0,0.3-0.2,0.5-0.5,0.5h-1.7C16.2,8,16,7.8,16,7.5V5.8c0-0.3,0.2-0.5,0.5-0.5h1.7
	C18.4,5.3,18.7,5.6,18.7,5.8z M24,0v24H0V0H24z M20,10h-4.5c0.4,0.6,0.6,1.3,0.6,2.1c0,2.2-1.8,4.1-4.1,4.1c-2.2,0-4.1-1.8-4.1-4.1
	c0-0.8,0.2-1.5,0.6-2.1H4v6.9C4,18.6,5.5,20,7.2,20h9.7c1.7,0,3.1-1.4,3.1-3.1C20,16.9,20,10,20,10z M12,15.2c1.7,0,3.1-1.4,3.1-3.1
	c0-0.9-0.4-1.8-1.1-2.4c-0.2-0.2-0.5-0.4-0.8-0.5C12.9,9,12.5,8.9,12,8.9c-0.5,0-0.9,0.1-1.3,0.3c-0.3,0.1-0.5,0.3-0.8,0.5
	c-0.7,0.6-1.1,1.4-1.1,2.4C8.9,13.8,10.3,15.2,12,15.2z M20,7.1C20,5.4,18.6,4,16.9,4H8.7v3.3H8V4H7.3v3.3H6.7V4.1
	C6.4,4.1,6.2,4.1,6,4.2v3.1H5.3V4.6C4.5,5.2,4,6.1,4,7.1v2.2h5C9.8,8.5,10.8,8,12,8c1.1,0,2.2,0.5,3,1.3h5C20,9.3,20,7.1,20,7.1z
	 M12,14.4c1.3,0,2.3-1,2.3-2.3s-1-2.3-2.3-2.3s-2.3,1-2.3,2.3S10.7,14.4,12,14.4z"/>
</svg>
